<svg width="283" height="260" viewBox="0 0 283 260" fill="none" xmlns="http://www.w3.org/2000/svg">
<path d="M59.0709 90.2096C62.5448 106.334 52.2904 122.223 36.1661 125.698C20.0417 129.173 4.15144 118.919 0.675938 102.794C-2.79715 86.6689 7.45561 70.7803 23.5808 67.304C39.7067 63.8301 55.5954 74.0836 59.0709 90.2096Z" fill="#EC524F"/>
<path d="M154.37 58.4797C157.846 74.6048 147.59 90.4927 131.465 93.969C115.34 97.4437 99.452 87.1901 95.9773 71.065C92.501 54.9398 102.755 39.0511 118.88 35.5757C135.005 32.1002 150.895 42.3545 154.37 58.4797Z" fill="#EC524F"/>
<path d="M135.156 147.883C136.401 153.66 132.727 159.353 126.951 160.596C121.173 161.841 115.481 158.167 114.237 152.391C112.992 146.614 116.665 140.922 122.44 139.677C128.219 138.432 133.911 142.106 135.156 147.883Z" fill="#EC524F"/>
<path d="M156.888 160.473C157.922 165.271 154.871 169.998 150.073 171.032C145.276 172.067 140.549 169.015 139.515 164.217C138.481 159.42 141.531 154.693 146.329 153.659C151.126 152.625 155.855 155.675 156.888 160.473Z" fill="#FBB040"/>
<path d="M178.206 165.944C179.24 170.742 176.189 175.468 171.391 176.503C166.595 177.539 161.868 174.486 160.833 169.69C159.798 164.891 162.85 160.164 167.648 159.13C172.446 158.096 177.175 161.146 178.206 165.944Z" fill="#FBB040"/>
<path d="M175.678 146.146C176.711 150.944 173.66 155.671 168.863 156.705C164.066 157.738 159.338 154.687 158.304 149.89C157.269 145.092 160.321 140.365 165.119 139.331C169.916 138.297 174.644 141.349 175.678 146.146Z" fill="#9B59A2"/>
<path d="M169.746 111.705C171.011 117.572 167.281 123.353 161.414 124.618C155.547 125.883 149.764 122.151 148.5 116.285C147.236 110.418 150.967 104.636 156.834 103.372C162.7 102.108 168.482 105.838 169.746 111.705Z" fill="#EC524F"/>
<path d="M106.926 73.3219C110.4 89.4471 100.144 105.336 84.0225 108.811C67.8958 112.287 52.0071 102.032 48.5316 85.9064C45.0561 69.7821 55.3121 53.8934 71.4364 50.4179C87.5608 46.9424 103.45 57.1968 106.926 73.3219Z" fill="#8DC63F"/>
<path d="M133.296 25.7564C136.771 41.88 126.516 57.7703 110.393 61.2458C94.2667 64.7213 78.3772 54.4669 74.9017 38.3417C71.4278 22.2174 81.6822 6.3279 97.8066 2.8516C113.931 -0.622292 129.822 9.63047 133.296 25.7564Z" fill="#00B9C5"/>
<path d="M98.5154 118.958C101.991 135.082 91.7349 150.972 75.6113 154.446C59.4854 157.922 43.5967 147.668 40.122 131.542C36.6465 115.417 46.9009 99.5293 63.0268 96.053C79.1512 92.5783 95.0407 102.833 98.5154 118.958Z" fill="#00B9C5"/>
<path d="M158.029 136.811C159.31 142.753 155.531 148.607 149.59 149.888C143.648 151.168 137.795 147.39 136.515 141.449C135.232 135.507 139.012 129.654 144.954 128.373C150.895 127.092 156.748 130.871 158.029 136.811Z" fill="#00B9C5"/>
<path d="M98.5714 23.5799C102.047 39.7051 91.7909 55.5938 75.6666 59.0701C59.5422 62.5456 43.6511 52.2912 40.1765 36.1668C36.7018 20.0409 46.9553 4.15219 63.0813 0.676696C79.2048 -2.7988 95.0959 7.45557 98.5714 23.5799Z" fill="#9B59A2"/>
<path d="M64.6859 46.6207C68.1606 62.745 57.9062 78.6337 41.7802 82.1092C25.6567 85.5855 9.76638 75.3303 6.29169 59.206C2.817 43.08 13.0706 27.1913 29.1957 23.7158C45.3209 20.2412 61.2104 30.4955 64.6859 46.6207Z" fill="#FBB040"/>
<path d="M146.594 101.899C150.07 118.022 139.815 133.911 123.691 137.387C107.566 140.862 91.6784 130.608 88.2013 114.483C84.7266 98.3566 94.981 82.4695 111.106 78.994C127.231 75.5194 143.121 85.7729 146.594 101.899Z" fill="#FBB040"/>
<path d="M33.2769 85.4343C30.3926 81.3732 24.7028 80.4635 20.5677 83.4001C16.4327 86.3367 15.42 92.0097 18.3043 96.0707C20.8774 99.6926 25.6824 100.805 29.6244 98.9196L31.7229 101.875C31.3537 102.253 31.2186 102.723 31.4293 103.018L36.5272 110.192C36.7805 110.549 37.4385 110.518 37.9959 110.122L39.4887 109.061C40.0453 108.663 40.293 108.054 40.0413 107.696L34.9434 100.523C34.7335 100.225 34.2445 100.199 33.7667 100.424L31.7245 97.5483C35.2547 94.4934 35.9899 89.2508 33.2769 85.4343ZM19.9379 94.9093C17.6834 91.7338 18.4748 87.3003 21.7074 85.0048C24.9392 82.7084 29.388 83.4203 31.6425 86.5949C33.8986 89.7696 33.1064 94.2055 29.8738 96.501C26.6412 98.7974 22.1933 98.084 19.9379 94.9093Z" fill="white"/>
<path d="M85.0913 90.3455C84.973 86.1871 81.664 82.8532 77.6006 82.8532C73.5371 82.8532 70.2297 86.188 70.1099 90.3455H85.0913Z" fill="white"/>
<path d="M81.841 77.3532C81.841 79.9279 79.942 82.0143 77.6006 82.0143C75.2584 82.0143 73.3594 79.9279 73.3594 77.3532C73.3594 74.7786 75.2584 72.6913 77.6006 72.6913C79.9412 72.6913 81.841 74.7778 81.841 77.3532Z" fill="white"/>
<path d="M95.0631 88.7586C94.973 85.5815 92.4442 83.0334 89.3395 83.0334C86.2364 83.0334 83.7092 85.5815 83.6191 88.7586H95.0631Z" fill="white"/>
<path d="M92.5788 78.8316C92.5788 80.799 91.1302 82.3923 89.3398 82.3923C87.5502 82.3923 86.1016 80.799 86.1016 78.8316C86.1016 76.865 87.551 75.2692 89.3398 75.2692C91.1302 75.27 92.5788 76.8658 92.5788 78.8316Z" fill="white"/>
<path d="M70.7926 88.7586C70.7033 85.5815 68.1737 83.0334 65.0706 83.0334C61.9659 83.0334 59.4387 85.5815 59.3486 88.7586H70.7926Z" fill="white"/>
<path d="M68.3105 78.8316C68.3105 80.799 66.8587 82.3923 65.0707 82.3923C63.2819 82.3923 61.8301 80.799 61.8301 78.8316C61.8301 76.865 63.2827 75.2692 65.0707 75.2692C66.8595 75.27 68.3105 76.8658 68.3105 78.8316Z" fill="white"/>
<path d="M89.9953 66.8584C89.9953 69.2923 87.7987 71.2677 85.0905 71.2677C84.1044 71.2677 83.2204 70.9773 82.2311 71.221C81.6278 71.3698 81.0254 71.9699 80.4206 71.9313C80.7125 71.1181 81.2064 70.0717 80.8999 69.1451C80.6273 68.3271 80.1841 67.8581 80.1841 66.8584C80.1841 64.4221 82.3807 62.4482 85.0905 62.4482C87.7987 62.4474 89.9953 64.4221 89.9953 66.8584Z" fill="white"/>
<path d="M63.8672 70.7143C63.8672 72.6608 65.6214 74.2389 67.7875 74.2389C68.5733 74.2389 69.2811 74.0064 70.071 74.2019C70.5544 74.3209 71.0329 74.7995 71.5179 74.7689C71.2831 74.1182 70.8898 73.2825 71.1351 72.5417C71.3531 71.8886 71.707 71.5146 71.707 70.7143C71.707 68.7686 69.9503 67.1906 67.7875 67.1906C65.6214 67.1906 63.8672 68.7686 63.8672 70.7143Z" fill="white"/>
<path d="M44.3084 63.6644C44.1331 57.5523 39.2733 52.6539 33.302 52.6539C27.3323 52.6539 22.4733 57.5523 22.2964 63.6644H44.3084Z" fill="white"/>
<path d="M39.5337 44.5737C39.5337 48.3556 36.7427 51.4241 33.3018 51.4241C29.8625 51.4241 27.0723 48.3556 27.0723 44.5737C27.0723 40.7917 29.8625 37.724 33.3018 37.724C36.7427 37.7232 39.5337 40.7909 39.5337 44.5737Z" fill="white"/>
<path d="M79.3888 40.5376H57.2304C55.4512 40.5376 54.0034 39.0898 54.0034 37.3106V23.2871C54.0034 21.5072 55.4512 20.0602 57.2304 20.0602H79.3888C81.1696 20.0602 82.6174 21.5072 82.6174 23.2871V37.3106C82.6166 39.0898 81.1696 40.5376 79.3888 40.5376ZM57.2304 21.7428C56.3794 21.7428 55.6869 22.4354 55.6869 23.2871V37.3106C55.6869 38.1624 56.3794 38.8541 57.2304 38.8541H79.3888C80.2422 38.8541 80.9339 38.1624 80.9339 37.3106V23.2871C80.9339 22.4354 80.2422 21.7428 79.3888 21.7428H57.2304Z" fill="white"/>
<path d="M67.7774 31.5186L55.5098 22.7112L56.5731 21.5562L67.7935 29.6124L80.386 20.8372L81.4284 22.0058L67.7774 31.5186Z" fill="white"/>
<path d="M67.8514 30.9484L81.4285 38.6458L80.3684 39.6769L67.8361 32.6495L56.0326 39.9239L54.9902 38.879L67.8514 30.9484Z" fill="white"/>
<path d="M105.569 21.8458C100.173 21.8458 95.7998 26.1345 95.7998 31.4237C95.7998 36.7122 100.174 41 105.569 41C110.962 41 115.338 36.7114 115.338 31.4237C115.337 26.1345 110.962 21.8458 105.569 21.8458ZM105.569 38.6361C101.611 38.6361 98.405 35.4912 98.405 31.6135C98.405 27.7335 101.611 24.5894 105.569 24.5894C109.524 24.5894 112.733 27.7335 112.733 31.6135C112.733 35.4912 109.524 38.6361 105.569 38.6361Z" fill="white"/>
<path d="M104.04 22.1474H107.032C106.873 21.3021 106.653 20.4511 106.543 19.6017C106.487 19.1746 106.35 18.5231 105.534 18.5231C104.433 18.5231 104.511 19.4087 104.425 19.8873C104.314 20.4977 104.212 21.1098 104.112 21.7211C104.106 21.7412 104.05 22.1474 104.04 22.1474Z" fill="white"/>
<path d="M115.165 29.8963C115.165 29.8979 115.165 32.89 115.165 32.89C116.01 32.7316 116.861 32.512 117.71 32.401C118.135 32.3455 118.789 32.2071 118.789 31.3948C118.789 30.2912 117.902 30.3676 117.425 30.2816C116.811 30.173 116.202 30.0716 115.589 29.9695C115.571 29.9663 115.165 29.9108 115.165 29.8963Z" fill="white"/>
<path d="M107.032 40.6992H104.04C104.198 41.5896 104.419 42.4856 104.528 43.38C104.585 43.8289 104.721 44.5158 105.534 44.5158C106.636 44.5158 106.561 43.5835 106.647 43.0792C106.758 42.435 106.858 41.7899 106.96 41.1456C106.964 41.1263 107.018 40.6992 107.032 40.6992Z" fill="white"/>
<path d="M95.9672 32.9198V29.9277C95.1203 30.0861 94.2709 30.3057 93.4224 30.4175C92.9953 30.4722 92.3438 30.6105 92.3438 31.4237C92.3438 32.5257 93.2277 32.4492 93.7063 32.5353C94.3192 32.6447 94.9297 32.7468 95.5426 32.8474C95.5611 32.8506 95.9672 32.9077 95.9672 32.9198Z" fill="white"/>
<path d="M111.043 23.8067L113.161 25.9237C113.678 25.1821 114.155 24.3939 114.707 23.6837C114.986 23.3266 115.372 22.745 114.796 22.1691C114.018 21.3897 113.413 22.1032 112.996 22.3984C112.464 22.7748 111.938 23.1593 111.411 23.5421C111.394 23.5534 111.053 23.8148 111.043 23.8067Z" fill="white"/>
<path d="M113.161 36.8819L111.041 38.9989C111.812 39.5434 112.627 40.0469 113.365 40.6268C113.736 40.9188 114.339 41.3282 114.913 40.7523C115.693 39.9721 114.953 39.3407 114.641 38.9088C114.244 38.3554 113.842 37.8093 113.438 37.2639C113.425 37.2454 113.15 36.8907 113.161 36.8819Z" fill="white"/>
<path d="M100.043 39.0399L97.9266 36.9237C97.3981 37.6766 96.9099 38.4761 96.346 39.1975C96.0621 39.5603 95.6664 40.1523 96.2407 40.7266C97.0209 41.506 97.637 40.7805 98.0601 40.478C98.6006 40.0928 99.1355 39.7019 99.6703 39.3101C99.6872 39.2981 100.033 39.0302 100.043 39.0399Z" fill="white"/>
<path d="M98.0143 25.9696L100.131 23.8534C99.3544 23.3008 98.5299 22.7877 97.7851 22.1997C97.4095 21.9045 96.7998 21.4879 96.2255 22.0638C95.4453 22.8432 96.1958 23.4858 96.5111 23.9234C96.9132 24.4808 97.3234 25.0341 97.732 25.5859C97.7441 25.602 98.024 25.9607 98.0143 25.9696Z" fill="white"/>
<path d="M105.535 26.7691C102.915 26.7691 100.791 28.8539 100.791 31.4245C100.791 33.9927 102.916 36.0776 105.535 36.0776C108.157 36.0776 110.282 33.9927 110.282 31.4245C110.282 28.8539 108.156 26.7691 105.535 26.7691ZM105.535 34.9282C103.613 34.9282 102.055 33.4008 102.055 31.5154C102.055 29.6293 103.613 28.1018 105.535 28.1018C107.46 28.1018 109.017 29.6293 109.017 31.5154C109.017 33.3999 107.459 34.9282 105.535 34.9282Z" fill="white"/>
<path d="M132.902 60.0272H126.1V58.8995C126.1 57.6987 126.021 56.9129 125.865 56.5413C125.707 56.1729 125.371 55.9879 124.854 55.9879C124.439 55.9879 124.126 56.1487 123.919 56.4681C123.712 56.7874 123.608 57.2684 123.608 57.907C123.608 58.9735 123.822 59.7192 124.247 60.1479C124.664 60.5725 125.886 61.4034 127.918 62.6381C129.646 63.6813 130.824 64.4808 131.453 65.0366C132.081 65.5916 132.611 66.379 133.046 67.394C133.476 68.4115 133.694 69.6751 133.694 71.1913C133.694 73.6155 133.108 75.5169 131.942 76.8956C130.775 78.279 129.023 79.1316 126.689 79.4557V82.0151H123.559V79.3721C121.74 79.1927 120.152 78.4954 118.794 77.2768C117.436 76.0583 116.756 73.9356 116.756 70.9041V69.5754H123.559V71.2419C123.559 73.0702 123.628 74.2067 123.769 74.6499C123.909 75.0931 124.248 75.3151 124.788 75.3151C125.246 75.3151 125.59 75.1614 125.814 74.8518C126.038 74.5437 126.15 74.0869 126.15 73.4804C126.15 71.9538 126.045 70.8615 125.832 70.2052C125.617 69.5488 124.887 68.833 123.642 68.0592C121.566 66.7562 120.153 65.7991 119.407 65.1878C118.661 64.5765 118.016 63.7142 117.471 62.6043C116.926 61.4927 116.654 60.2363 116.654 58.8336C116.654 56.8027 117.229 55.2069 118.38 54.0511C119.531 52.896 121.256 52.1818 123.558 51.9132V49.7415H126.688V51.9132C128.787 52.1818 130.359 52.8872 131.404 54.0269C132.447 55.1642 132.967 56.7383 132.967 58.7483C132.968 59.0298 132.946 59.4545 132.902 60.0272Z" fill="white"/>
<path d="M68.7164 116.786V121.778C68.7164 123.084 68.5949 124.062 68.3496 124.714C68.1043 125.368 67.5766 125.936 66.7675 126.421C65.9599 126.905 64.891 127.148 63.5614 127.148C62.0292 127.148 60.8629 126.918 60.0594 126.457C59.2583 125.996 58.7146 125.442 58.4338 124.796C58.1531 124.148 58.0132 123.221 58.0132 122.013V116.785C58.0132 115.348 58.1596 114.286 58.4532 113.597C58.7459 112.909 59.3122 112.35 60.1503 111.918C60.9884 111.487 62.0236 111.272 63.2574 111.272C64.6223 111.272 65.7291 111.507 66.5793 111.98C67.4311 112.453 67.9997 113.024 68.2861 113.695C68.574 114.368 68.7164 115.398 68.7164 116.786ZM64.1196 115.51C64.1196 114.744 64.0802 114.272 64.0022 114.092C63.9234 113.912 63.711 113.822 63.3644 113.822C63.0418 113.822 62.8311 113.919 62.7346 114.11C62.6389 114.302 62.5922 114.769 62.5922 115.51V122.839C62.5922 123.677 62.634 124.18 62.7169 124.348C62.8005 124.515 63.0225 124.599 63.3813 124.599C63.6925 124.599 63.8944 124.504 63.9829 124.313C64.073 124.121 64.1188 123.673 64.1188 122.966L64.1196 115.51ZM77.1779 111.273L65.8071 141.464H63.0418L74.4488 111.273H77.1779ZM82.2073 130.831V135.842C82.2073 137.135 82.0843 138.112 81.8374 138.771C81.5904 139.429 81.0652 140.001 80.2577 140.486C79.4485 140.971 78.3804 141.213 77.0524 141.213C75.5298 141.213 74.3652 140.98 73.5576 140.512C72.7485 140.046 72.2047 139.488 71.9224 138.842C71.6417 138.195 71.5026 137.274 71.5026 136.076V130.831C71.5026 129.407 71.6489 128.35 71.9417 127.661C72.2337 126.972 72.7991 126.409 73.638 125.973C74.477 125.536 75.5129 125.316 76.7452 125.316C78.1246 125.316 79.237 125.557 80.0863 126.035C80.9365 126.515 81.502 127.09 81.7827 127.76C82.065 128.431 82.2073 129.454 82.2073 130.831ZM77.6074 129.574C77.6074 128.808 77.5688 128.332 77.4908 128.147C77.412 127.96 77.2004 127.868 76.8521 127.868C76.5296 127.868 76.3221 127.964 76.2328 128.155C76.1435 128.347 76.0977 128.82 76.0977 129.574V136.903C76.0977 137.728 76.1411 138.226 76.2248 138.393C76.3076 138.562 76.5232 138.645 76.8698 138.645C77.1932 138.645 77.3975 138.553 77.4811 138.365C77.5648 138.18 77.6066 137.728 77.6066 137.011L77.6074 129.574Z" fill="white"/>
<path d="M130.807 117.095C130.807 118.273 129.851 119.226 128.675 119.226H107.182C106.004 119.226 105.049 118.272 105.049 117.095V104.218C105.049 103.04 106.005 102.086 107.182 102.086H128.675C129.852 102.086 130.807 103.04 130.807 104.218V117.095Z" fill="white"/>
<path d="M112.259 102.086V99.9476C112.259 98.9615 113.057 98.1636 114.044 98.1636H121.811C122.797 98.1636 123.596 98.9615 123.596 99.9476V102.086H124.696V99.2864C124.696 98.1089 123.74 97.155 122.564 97.155H113.292C112.114 97.155 111.16 98.1097 111.16 99.2864V102.086H112.259Z" fill="white"/>
<path d="M282.732 254.117C282.732 257.03 252.753 259.392 215.773 259.392C178.79 259.392 148.812 257.03 148.812 254.117C148.812 251.203 178.79 248.842 215.773 248.842C252.754 248.842 282.732 251.203 282.732 254.117Z" fill="#C1C3C3"/>
<path d="M204.976 118.335C204.976 119.39 204.121 120.246 203.066 120.246C202.012 120.246 201.156 119.391 201.156 118.335C201.156 117.281 202.012 116.425 203.066 116.425C204.122 116.425 204.976 117.281 204.976 118.335Z" fill="#603913"/>
<path d="M182.165 118.335C182.165 119.39 181.309 120.246 180.255 120.246C179.198 120.246 178.344 119.391 178.344 118.335C178.344 117.281 179.199 116.425 180.255 116.425C181.309 116.425 182.165 117.281 182.165 118.335Z" fill="#603913"/>
<path d="M181.332 118.111C181.332 117.228 181.332 101.158 181.332 101.158C181.332 95.2027 185.929 90.376 191.598 90.376C197.268 90.376 201.865 95.2019 201.865 101.158C201.865 101.158 201.865 117.574 201.865 118.111C201.865 118.646 202.046 119.299 202.937 119.299C203.829 119.299 204.163 118.963 204.163 118.111C204.163 117.258 204.163 100.565 204.163 100.565C204.163 93.6255 198.539 88 191.598 88C184.659 88 179.033 93.6255 179.033 100.565C179.033 100.565 179.033 117.469 179.033 118.111C179.033 118.752 179.379 119.299 180.126 119.299C180.872 119.298 181.332 118.992 181.332 118.111Z" fill="#8F2E22"/>
<path d="M236.036 109.99H186.388V185.331H236.036V109.99Z" fill="#19A68B"/>
<path d="M186.388 109.99H170.298V185.331H186.388V109.99Z" fill="#0E8570"/>
<path d="M186.388 109.99H178.344V185.331H186.388V109.99Z" fill="#E6E7E8"/>
<path d="M170.298 185.331H186.388L178.344 173.837L170.298 185.331Z" fill="#19A68B"/>
<path d="M223.595 118.335C223.595 119.39 222.739 120.246 221.685 120.246C220.631 120.246 219.774 119.391 219.774 118.335C219.774 117.281 220.63 116.425 221.685 116.425C222.738 116.425 223.595 117.281 223.595 118.335Z" fill="#603913"/>
<path d="M200.782 118.335C200.782 119.39 199.927 120.246 198.872 120.246C197.817 120.246 196.961 119.391 196.961 118.335C196.961 117.281 197.817 116.425 198.872 116.425C199.927 116.425 200.782 117.281 200.782 118.335Z" fill="#603913"/>
<path d="M199.949 118.111C199.949 117.228 199.949 101.158 199.949 101.158C199.949 95.2027 204.545 90.376 210.215 90.376C215.886 90.376 220.482 95.2019 220.482 101.158C220.482 101.158 220.482 117.574 220.482 118.111C220.482 118.646 220.663 119.299 221.555 119.299C222.446 119.299 222.781 118.963 222.781 118.111C222.781 117.258 222.781 100.565 222.781 100.565C222.781 93.6255 217.156 88 210.215 88C203.277 88 197.65 93.6255 197.65 100.565C197.65 100.565 197.65 117.469 197.65 118.111C197.65 118.752 197.997 119.299 198.743 119.299C199.489 119.298 199.949 118.992 199.949 118.111Z" fill="#C04235"/>
<path d="M255.968 116.852L255.978 116.826C255.897 116.801 255.821 116.789 255.742 116.766C255.665 116.739 255.595 116.705 255.516 116.68L255.507 116.705C243.143 113.364 236.038 134.838 235.967 135.057C235.532 136.404 235.857 137.366 236.209 137.937C236.795 138.888 237.788 139.347 238.443 139.556C238.768 139.659 239.01 139.701 239.076 139.712L239.454 137.362C239.159 137.312 238.468 137.08 238.232 136.686C238.184 136.609 238.04 136.371 238.229 135.788C238.291 135.589 244.896 116.143 255.021 119.032C264.954 122.525 259.102 142.212 259.04 142.41C258.856 142.996 258.602 143.105 258.519 143.142C258.098 143.326 257.4 143.117 257.13 142.988L256.081 145.123C256.141 145.152 256.363 145.258 256.688 145.361C257.343 145.569 258.419 145.77 259.447 145.331C260.063 145.069 260.886 144.471 261.308 143.121C261.378 142.902 267.989 121.271 255.968 116.852Z" fill="#F99D2B"/>
<path d="M261.154 137.883C261.33 135.651 261.36 133.366 261.302 131.126C261.249 128.931 260.953 126.831 260.139 125.046C262.115 132.073 259.085 142.268 259.04 142.411C258.856 142.997 258.602 143.106 258.519 143.143C258.098 143.327 257.4 143.117 257.13 142.989L256.082 145.123C256.141 145.153 256.363 145.258 256.688 145.361C257.006 145.462 257.424 145.562 257.887 145.586C259.449 143.051 260.912 140.988 261.154 137.883Z" fill="#D1D3D4"/>
<path d="M240.327 128.382C238.122 131.943 236.907 136.159 238.834 139.662C238.953 139.688 239.04 139.706 239.076 139.712L239.454 137.362C239.159 137.312 238.469 137.08 238.232 136.686C238.184 136.609 238.041 136.371 238.229 135.788C238.277 135.635 242.186 124.142 248.58 120.118C244.865 121.208 242.246 125.289 240.327 128.382Z" fill="#D1D3D4"/>
<path d="M246.352 201.298L232.003 192.159L215.012 191.325L240.278 132.831L259.16 138.839L246.352 201.298Z" fill="#1C6693"/>
<path d="M234.406 184.606C234.406 184.606 235.123 181.481 236.397 176.858C237.027 174.543 237.793 171.854 238.648 168.983C239.083 167.55 239.51 166.062 239.983 164.562C240.452 163.061 240.928 161.536 241.403 160.011C241.896 158.491 242.389 156.972 242.874 155.476C243.352 153.977 243.865 152.517 244.339 151.096C245.299 148.259 246.229 145.621 247.053 143.369C248.685 138.86 249.909 135.896 249.909 135.896C249.909 135.896 249.194 139.022 247.92 143.645C247.292 145.959 246.525 148.649 245.668 151.519C245.233 152.953 244.809 154.441 244.332 155.94C243.864 157.441 243.387 158.966 242.912 160.491C242.419 162.01 241.925 163.53 241.44 165.025C240.96 166.522 240.448 167.984 239.974 169.404C239.013 172.241 238.084 174.879 237.261 177.132C235.627 181.642 234.406 184.606 234.406 184.606Z" fill="#A9ABAE"/>
<path d="M215.012 191.325C215.012 191.325 216.137 190.655 217.894 189.848C218.77 189.436 219.803 188.989 220.92 188.542C221.483 188.325 222.054 188.08 222.65 187.87C223.243 187.655 223.846 187.436 224.45 187.218C225.059 187.016 225.667 186.815 226.267 186.616C226.864 186.409 227.466 186.25 228.041 186.072C229.196 185.731 230.284 185.444 231.227 185.225C233.107 184.773 234.406 184.606 234.406 184.606C234.406 184.606 233.282 185.278 231.525 186.085C230.649 186.497 229.617 186.945 228.498 187.391C227.936 187.606 227.365 187.855 226.769 188.062C226.175 188.277 225.572 188.495 224.968 188.714C224.359 188.916 223.75 189.117 223.151 189.315C222.553 189.518 221.951 189.68 221.376 189.857C220.221 190.197 219.133 190.485 218.19 190.704C216.311 191.156 215.012 191.325 215.012 191.325Z" fill="#A9ABAE"/>
<path d="M234.406 184.606C234.406 184.606 235.368 185.495 236.641 186.951C237.284 187.674 238.006 188.538 238.751 189.483C239.119 189.96 239.516 190.439 239.886 190.951C240.261 191.459 240.641 191.975 241.023 192.492C241.389 193.019 241.755 193.545 242.114 194.064C242.482 194.578 242.805 195.111 243.138 195.612C243.794 196.622 244.378 197.584 244.854 198.427C245.821 200.101 246.351 201.3 246.351 201.3C246.351 201.3 245.388 200.412 244.114 198.956C243.471 198.234 242.749 197.37 242.004 196.424C241.637 195.947 241.237 195.469 240.87 194.955C240.494 194.447 240.114 193.931 239.734 193.414C239.368 192.887 239.002 192.36 238.643 191.841C238.278 191.325 237.953 190.795 237.619 190.294C236.965 189.282 236.38 188.321 235.904 187.478C234.937 185.803 234.406 184.606 234.406 184.606Z" fill="#A9ABAE"/>
<path d="M193.661 204.085L165.478 195.62L157.126 156.543L185.31 165.007L193.661 204.085Z" fill="#603913"/>
<path d="M193.661 204.085L231.555 181.498L223.203 142.421L185.31 165.007L193.661 204.085Z" fill="#754C29"/>
<path d="M157.126 156.543L195.019 133.958L223.203 142.421L185.31 165.007L157.126 156.543Z" fill="#8A5B33"/>
<path d="M169.954 160.365L207.847 137.779L223.203 142.421L185.31 165.007L169.954 160.365Z" fill="#936037"/>
<path d="M169.704 203.033L169.866 203.609C170.879 207.119 174.072 211.463 178.244 211.463H243.791C247.964 211.463 251.156 207.119 252.17 203.609L252.333 203.033H169.704Z" fill="#A42122"/>
<path d="M147.837 140.322L164.405 197.83C165.555 201.806 169.171 206.727 173.895 206.727H248.139C252.866 206.727 256.481 201.806 257.629 197.83L272.492 140.322H147.837ZM177.82 199.19C175.253 199.97 172.54 198.521 171.76 195.953L158.494 152.288C157.715 149.722 159.162 147.009 161.73 146.227C164.296 145.447 167.011 146.895 167.79 149.463L181.055 193.128C181.833 195.695 180.386 198.409 177.82 199.19ZM200.802 199.19C198.236 199.97 195.523 198.521 194.743 195.953L181.477 152.288C180.697 149.722 182.145 147.009 184.713 146.227C187.279 145.447 189.993 146.895 190.772 149.463L204.038 193.128C204.819 195.695 203.369 198.409 200.802 199.19ZM223.787 199.19C221.219 199.97 218.506 198.521 217.727 195.953L204.461 152.288C203.68 149.722 205.13 147.009 207.697 146.227C210.264 145.447 212.977 146.895 213.757 149.463L227.021 193.128C227.802 195.695 226.354 198.409 223.787 199.19ZM246.771 199.19C244.204 199.97 241.49 198.521 240.71 195.953L227.444 152.288C226.663 149.722 228.112 147.009 230.68 146.227C233.248 145.447 235.959 146.895 236.74 149.463L250.005 193.128C250.786 195.695 249.338 198.409 246.771 199.19ZM260.019 167.286C257.454 168.066 254.74 166.617 253.96 164.049L250.427 152.287C249.648 149.721 251.097 147.008 253.664 146.226C256.231 145.446 258.945 146.894 259.723 149.462L263.255 161.225C264.035 163.793 262.586 166.506 260.019 167.286Z" fill="#B42627"/>
<path d="M189.926 233.693C178.155 233.693 166.413 224.842 163.178 213.524L142.054 139.606C139.618 131.077 132.674 123.96 127.967 122.91L115.454 120.114C113.073 119.583 111.576 117.221 112.107 114.841C112.639 112.46 115.001 110.962 117.379 111.493L129.895 114.289C138.347 116.178 147.42 126.232 150.547 137.177L171.671 211.097C173.804 218.563 182.16 224.861 189.926 224.861C189.934 224.861 189.942 224.861 189.95 224.861L259.214 224.743C259.214 224.743 259.219 224.743 259.221 224.743C261.657 224.743 263.633 226.715 263.637 229.152C263.641 231.59 261.668 233.57 259.23 233.576L189.966 233.693C189.954 233.693 189.94 233.693 189.926 233.693Z" fill="#939598"/>
<path d="M202.883 239.861C202.883 247.423 196.755 253.552 189.193 253.552C181.632 253.552 175.502 247.423 175.502 239.861C175.502 232.301 181.632 226.171 189.193 226.171C196.755 226.171 202.883 232.302 202.883 239.861Z" fill="#2D2932"/>
<path d="M198.172 239.861C198.172 244.821 194.153 248.842 189.193 248.842C184.233 248.842 180.215 244.821 180.215 239.861C180.215 234.903 184.233 230.882 189.193 230.882C194.153 230.882 198.172 234.903 198.172 239.861Z" fill="#BCBEC0"/>
<path d="M196.112 239.861C196.112 243.682 193.015 246.78 189.193 246.78C185.372 246.78 182.274 243.683 182.274 239.861C182.274 236.041 185.372 232.943 189.193 232.943C193.015 232.944 196.112 236.041 196.112 239.861Z" fill="#D1D3D4"/>
<path d="M257.648 239.861C257.648 247.423 251.519 253.552 243.956 253.552C236.395 253.552 230.266 247.423 230.266 239.861C230.266 232.301 236.395 226.171 243.956 226.171C251.519 226.171 257.648 232.302 257.648 239.861Z" fill="#2D2932"/>
<path d="M252.936 239.861C252.936 244.821 248.917 248.842 243.956 248.842C238.998 248.842 234.978 244.821 234.978 239.861C234.978 234.903 238.998 230.882 243.956 230.882C248.917 230.882 252.936 234.903 252.936 239.861Z" fill="#BCBEC0"/>
<path d="M250.877 239.861C250.877 243.682 247.778 246.78 243.956 246.78C240.136 246.78 237.039 243.683 237.039 239.861C237.039 236.041 240.136 232.943 243.956 232.943C247.778 232.944 250.877 236.041 250.877 239.861Z" fill="#D1D3D4"/>
<path d="M275.412 140.24C275.412 141.542 274.356 142.595 273.054 142.595H148.51C147.21 142.595 146.155 141.542 146.155 140.24C146.155 138.939 147.21 137.885 148.51 137.885H273.054C274.356 137.886 275.412 138.939 275.412 140.24Z" fill="#A42122"/>
</svg>
