<svg width="138" height="253" viewBox="0 0 138 253" fill="none" xmlns="http://www.w3.org/2000/svg">
<path d="M6.76471 0H0L0 253H6.76471V246.011H18.9412V253H32.4706V246.011H47.3529V253H60.8824V246.011H75.7647V253H89.2941V246.011H102.824V253H116.353V246.011H131.235V253H138L138 0H131.235V6.98895H116.353V0H102.824V6.98895H89.2941V0H75.7647V6.98895H60.8824V0H47.3529V6.98895H32.4706V0H18.9412V6.98895H6.76471V0Z" fill="#39C3DB"/>
<path d="M16 34.4282L16 219.428H125L125 34.4282H16Z" fill="#3F9CB3"/>
<path d="M38.857 190.738C39.0387 190.034 39.4133 189.364 39.9809 188.728C40.5257 188.07 41.2182 187.537 42.0582 187.128C42.8983 186.697 43.8291 186.481 44.8508 186.481C47.3481 186.481 49.312 187.378 50.7423 189.171C52.1499 190.942 52.8537 193.576 52.8537 197.072C52.8537 198.729 52.6721 200.387 52.3088 202.044C51.9229 203.701 51.4575 205.177 50.9126 206.471H43.6588C44.2718 205.064 44.7713 203.611 45.1573 202.112C45.5432 200.591 45.7362 199.149 45.7362 197.787C45.7362 196.834 45.5886 196.141 45.2935 195.71C44.9983 195.256 44.5102 195.029 43.8291 195.029C42.5123 195.029 41.8539 195.823 41.8539 197.413V199.865H36.2688V197.957C36.2688 196.459 35.6331 195.71 34.3618 195.71C33.1358 195.71 32.5228 196.459 32.5228 197.957C32.5228 199.047 32.7839 200.182 33.306 201.363C33.8055 202.544 34.4639 203.69 35.2812 204.803L28.0275 206.812C27.301 205.427 26.688 203.849 26.1885 202.078C25.6663 200.307 25.4052 198.525 25.4052 196.731C25.4052 193.598 26.0636 191.192 27.3804 189.512C28.6972 187.832 30.5589 186.992 32.9655 186.992C34.4639 186.992 35.7013 187.344 36.6775 188.047C37.6311 188.751 38.3576 189.648 38.857 190.738ZM52.8537 173.606C52.8537 177.443 51.764 180.406 49.5844 182.495C47.4049 184.561 43.9199 185.594 39.1295 185.594C34.339 185.594 30.8541 184.561 28.6745 182.495C26.495 180.406 25.4052 177.443 25.4052 173.606C25.4052 169.769 26.495 166.818 28.6745 164.752C30.8541 162.663 34.339 161.619 39.1295 161.619C43.5567 161.619 46.9508 162.584 49.312 164.514C51.6731 166.421 52.8537 169.452 52.8537 173.606ZM46.7919 173.606C46.7919 172.063 45.9519 171.291 44.2718 171.291H33.9871C32.3071 171.291 31.4671 172.063 31.4671 173.606C31.4671 175.15 32.3071 175.922 33.9871 175.922H44.2718C45.9519 175.922 46.7919 175.15 46.7919 173.606ZM39.2316 154.555C39.2316 158.256 36.9613 160.106 32.4206 160.106C30.014 160.106 28.2659 159.629 27.1761 158.676C26.0863 157.722 25.5415 156.349 25.5415 154.555C25.5415 150.832 27.8345 148.97 32.4206 148.97C34.6228 148.97 36.3143 149.413 37.4948 150.298C38.6527 151.184 39.2316 152.603 39.2316 154.555ZM36.2688 154.555C36.2688 153.897 35.8488 153.568 35.0088 153.568H29.7302C28.9129 153.568 28.5043 153.897 28.5043 154.555C28.5043 155.191 28.9129 155.509 29.7302 155.509H35.0088C35.8488 155.509 36.2688 155.191 36.2688 154.555ZM52.377 155.713H51.2872L25.882 139.877V136.404H26.9718L52.377 152.205V155.713ZM52.7175 137.596C52.7175 141.296 50.4472 143.147 45.9065 143.147C43.4999 143.147 41.7517 142.67 40.662 141.716C39.5722 140.763 39.0273 139.389 39.0273 137.596C39.0273 133.872 41.3204 132.011 45.9065 132.011C48.1087 132.011 49.8001 132.453 50.9807 133.339C52.1386 134.224 52.7175 135.643 52.7175 137.596ZM49.7547 137.596C49.7547 136.937 49.3347 136.608 48.4947 136.608H43.2161C42.3988 136.608 41.9901 136.937 41.9901 137.596C41.9901 138.231 42.3988 138.549 43.2161 138.549H48.4947C49.3347 138.549 49.7547 138.231 49.7547 137.596Z" fill="white"/>
<path d="M101.064 193.803C101.064 197.957 99.9739 201.17 97.7944 203.44C95.6149 205.688 92.1299 206.812 87.3394 206.812C82.549 206.812 79.064 205.688 76.8845 203.44C74.705 201.17 73.6152 197.957 73.6152 193.803C73.6152 189.648 74.705 186.447 76.8845 184.199C79.064 181.929 82.549 180.794 87.3394 180.794C92.1299 180.794 95.6149 181.929 97.7944 184.199C99.9739 186.447 101.064 189.648 101.064 193.803ZM95.0019 193.803C95.0019 193.031 94.7975 192.452 94.3889 192.066C93.9802 191.68 93.3445 191.487 92.4818 191.487H82.1971C81.3344 191.487 80.6987 191.68 80.29 192.066C79.8814 192.452 79.677 193.031 79.677 193.803C79.677 194.575 79.8814 195.154 80.29 195.54C80.6987 195.925 81.3344 196.118 82.1971 196.118H92.4818C93.3672 196.118 94.0143 195.925 94.4229 195.54C94.8089 195.154 95.0019 194.575 95.0019 193.803ZM100.587 179.636H95.0019V177.933H79.677V179.636H74.092V159.271H82.9123V165.299H79.677V168.398H85.3302V163.255H89.2125V168.398H95.0019V163.937H100.587V179.636ZM100.587 158.119H95.0019V156.416H79.677V158.119H74.092V137.754H82.9123V143.781H79.677V146.881H85.3302V141.738H89.2125V146.881H95.0019V142.419H100.587V158.119Z" fill="white"/>
<path d="M100.07 52.0203C100.626 51.6493 101.263 51.3463 101.98 51.1113C102.698 50.8887 103.483 50.7774 104.336 50.7774C105.363 50.7774 106.247 50.9443 106.989 51.2783C107.731 51.6122 108.35 52.0636 108.844 52.6325C109.327 53.2014 109.685 53.8569 109.92 54.5989C110.155 55.3533 110.273 56.151 110.273 56.992C110.273 57.8701 110.143 58.6925 109.883 59.4593C109.623 60.226 109.24 60.8939 108.733 61.4628C108.213 62.044 107.57 62.5016 106.804 62.8355C106.037 63.1695 105.14 63.3364 104.114 63.3364C103.421 63.3364 102.735 63.2622 102.055 63.1138C101.374 62.9778 100.768 62.7861 100.237 62.5387L100.83 60.6094C101.251 60.8568 101.739 61.067 102.296 61.2402C102.852 61.4257 103.483 61.5184 104.188 61.5184C104.893 61.5184 105.493 61.4133 105.987 61.203C106.47 61.0052 106.859 60.7145 107.156 60.3312C107.453 59.9478 107.669 59.484 107.805 58.9398C107.941 58.408 108.009 57.802 108.009 57.1218C108.009 54.1042 106.729 52.5954 104.169 52.5954C103.712 52.5954 103.347 52.6325 103.075 52.7067C102.803 52.7809 102.512 52.8675 102.203 52.9664V56.0459H100.07V52.0203ZM92.9759 57.6784C93.0995 57.7773 93.2912 57.8577 93.5509 57.9195C93.8107 57.9814 94.0333 58.0123 94.2188 58.0123C94.4661 58.0123 94.6702 57.9504 94.831 57.8268C94.9917 57.7155 95.134 57.5609 95.2576 57.363C95.3813 57.1775 95.4864 56.9611 95.573 56.7137C95.6596 56.4664 95.74 56.2128 95.8142 55.9531V51H97.8548V59.5335H96.2594L96.1666 57.7526H96.0924C95.9688 58.0123 95.8389 58.2658 95.7029 58.5132C95.5668 58.7605 95.4122 58.9769 95.2391 59.1624C95.0659 59.3603 94.8681 59.5149 94.6455 59.6262C94.4105 59.7499 94.1384 59.8117 93.8292 59.8117C93.3345 59.8117 92.8707 59.6509 92.4379 59.3294L92.9759 57.6784ZM85.8126 51L85.961 52.1687H86.0352C86.3691 51.7482 86.8267 51.4081 87.408 51.1484C87.9769 50.9011 88.5581 50.7774 89.1518 50.7774C89.9309 50.7774 90.5431 51 90.9883 51.4452C91.4335 51.9028 91.6561 52.5026 91.6561 53.2447C91.6561 53.7517 91.551 54.2031 91.3408 54.5989C91.1182 55.007 90.8028 55.3471 90.3947 55.6192C89.9865 55.9036 89.498 56.1201 88.9291 56.2685C88.3602 56.4169 87.7233 56.4911 87.0184 56.4911H86.2207V56.7694C86.2207 57.2517 86.3753 57.6042 86.6845 57.8268C87.006 58.0494 87.5069 58.1607 88.1871 58.1607C89.1023 58.1607 89.9185 57.9566 90.6358 57.5485L91.0254 59.0882C90.1968 59.5706 89.195 59.8117 88.0201 59.8117C86.7834 59.8117 85.8435 59.5582 85.2004 59.0511C84.9036 58.8162 84.6624 58.5132 84.4769 58.1421C84.279 57.7711 84.1801 57.3259 84.1801 56.8065V51H85.8126ZM88.3541 52.4284C87.9583 52.4284 87.5626 52.5212 87.1668 52.7067C86.771 52.9046 86.4557 53.1643 86.2207 53.4858V55.174H86.5732C87.5873 55.174 88.3293 55.0441 88.7993 54.7844C89.2569 54.5247 89.4857 54.1104 89.4857 53.5415C89.4857 52.7994 89.1085 52.4284 88.3541 52.4284ZM77.0198 50.7774C77.6877 50.7774 78.2442 50.9134 78.6894 51.1855C79.1223 51.4576 79.5119 51.7853 79.8581 52.1687H79.9323L80.0808 51H81.7132V64.7277H79.6912V58.6801C79.4067 59.0388 79.0295 59.317 78.5596 59.5149C78.0896 59.7128 77.5578 59.8117 76.9642 59.8117C76.3211 59.8117 75.7584 59.6881 75.276 59.4407C74.7937 59.1934 74.3918 58.8656 74.0702 58.4575C73.7487 58.0494 73.5137 57.5732 73.3653 57.0291C73.2045 56.4973 73.1241 55.9407 73.1241 55.3595C73.1241 54.704 73.2169 54.098 73.4024 53.5415C73.5879 52.985 73.8538 52.5026 74.2001 52.0945C74.534 51.6864 74.9421 51.3648 75.4244 51.1299C75.9068 50.8949 76.4386 50.7774 77.0198 50.7774ZM77.2795 52.3171C76.9209 52.3171 76.6117 52.4037 76.352 52.5768C76.0799 52.75 75.8573 52.9726 75.6842 53.2447C75.4987 53.5291 75.3626 53.8507 75.276 54.2093C75.1895 54.5803 75.1462 54.9514 75.1462 55.3224C75.1462 55.7058 75.1957 56.0706 75.2946 56.4169C75.3812 56.7755 75.5234 57.0909 75.7213 57.363C75.9068 57.6351 76.1479 57.8453 76.4448 57.9937C76.7292 58.1545 77.0631 58.2349 77.4465 58.2349C77.8052 58.2349 78.1762 58.1483 78.5596 57.9752C78.943 57.8144 79.3202 57.5052 79.6912 57.0476V53.4858C79.5551 53.3003 79.3882 53.1334 79.1903 52.985C78.9924 52.8489 78.7884 52.7314 78.5781 52.6325C78.3555 52.5335 78.1329 52.4532 77.9103 52.3913C77.6877 52.3419 77.4774 52.3171 77.2795 52.3171ZM58.1658 54.2464V63.2437H56.0324V51H58.6481L64.0279 59.9787V51H66.1613V63.2437H63.5456L58.1658 54.2464ZM49.5403 59.8117C48.7859 59.8117 48.1366 59.6819 47.5924 59.4222C47.0483 59.1748 46.6031 58.8347 46.2568 58.4018C45.8981 57.9814 45.6384 57.4928 45.4776 56.9363C45.3045 56.3922 45.2179 55.8171 45.2179 55.2111C45.2179 54.6051 45.3045 54.03 45.4776 53.4858C45.6384 52.954 45.8981 52.4841 46.2568 52.076C46.6031 51.6802 47.0483 51.3648 47.5924 51.1299C48.1242 50.8949 48.755 50.7774 49.4846 50.7774C50.2391 50.7774 50.8883 50.9011 51.4325 51.1484C51.9767 51.3958 52.4281 51.7235 52.7867 52.1316C53.1454 52.5521 53.4113 53.0344 53.5844 53.5786C53.7576 54.1228 53.8441 54.6978 53.8441 55.3038C53.8441 55.9098 53.7576 56.4849 53.5844 57.0291C53.4113 57.5732 53.1516 58.0494 52.8053 58.4575C52.4466 58.878 51.9952 59.2057 51.4511 59.4407C50.9069 59.6881 50.27 59.8117 49.5403 59.8117ZM49.5032 52.3171C49.1445 52.3171 48.8354 52.3913 48.5756 52.5397C48.3036 52.7005 48.081 52.9108 47.9078 53.1705C47.7347 53.4425 47.611 53.7517 47.5368 54.098C47.4502 54.4443 47.4069 54.8091 47.4069 55.1925C47.4069 55.5883 47.4502 55.9655 47.5368 56.3241C47.6234 56.6952 47.7594 57.0167 47.9449 57.2888C48.1181 57.5732 48.3407 57.7958 48.6127 57.9566C48.8848 58.1298 49.2126 58.2163 49.596 58.2163C49.9546 58.2163 50.2638 58.136 50.5235 57.9752C50.7832 57.8268 50.9996 57.6227 51.1728 57.363C51.3336 57.1033 51.4572 56.8003 51.5438 56.454C51.618 56.1077 51.6551 55.7429 51.6551 55.3595C51.6551 54.9637 51.618 54.5803 51.5438 54.2093C51.4572 53.8507 51.3274 53.5291 51.1542 53.2447C50.9687 52.9602 50.7399 52.7314 50.4678 52.5583C50.1958 52.3975 49.8742 52.3171 49.5032 52.3171ZM36.8714 56.9363L38.708 51H41.1752L44.2733 59.5335H42.1399L39.9138 52.985L37.8917 59.5335H35.8511L33.8291 52.985L31.6029 59.5335H29.5067L32.6047 51H35.0349L36.8714 56.9363Z" fill="#39C3DB"/>
<path d="M9 27.2949L9 226.295H131V27.2949H9Z" stroke="#3F9CB3" stroke-miterlimit="10"/>
<path d="M11.0039 76.7471L127.276 76.7471" stroke="#39C3DB" stroke-miterlimit="10"/>
</svg>
